<svg width="300" height="55" viewBox="0 0 300 55" fill="none" xmlns="http://www.w3.org/2000/svg">
<path d="M64.1015 43.2796L63.3516 42.4714L67.0192 38.0522L67.9664 39.2499C68.7085 40.1862 69.6781 40.9548 70.7648 41.47C71.7869 41.9562 72.8921 42.2104 73.9563 42.2104C75.2139 42.2104 76.2863 41.9324 76.9756 41.4275C77.5963 40.9731 77.8992 40.3651 77.8992 39.5651C77.8992 38.6923 77.6334 38.1529 76.9543 37.6417C76.1729 37.0547 74.9086 36.5765 73.4419 36.0189C73.3182 35.9725 73.1906 35.9221 73.059 35.8717C71.0448 35.1182 69.111 34.3417 67.5588 33.098C66.6576 32.3758 65.9893 31.5786 65.517 30.6633C64.992 29.6472 64.725 28.4932 64.725 27.2308C64.725 25.0318 65.6694 22.9972 67.3812 21.5029C69.0429 20.0549 71.2764 19.2578 73.6735 19.2578C76.7688 19.2578 79.7921 20.3797 82.4089 22.5003L83.3534 23.2689L79.9473 27.7317L78.9528 26.9092C77.2017 25.4533 75.2773 24.6213 73.6723 24.6213C72.1803 24.6213 70.4332 25.2717 70.4056 27.1063C70.395 27.9249 70.7857 28.3714 71.3777 28.7902C72.2264 29.3903 73.5762 29.9094 75.0035 30.4591L75.0181 30.463C75.2414 30.5531 75.4651 30.6419 75.6889 30.728C77.7098 31.5255 79.62 32.2766 81.0682 33.4783C82.7799 34.9009 83.6137 36.7752 83.6137 39.2102C83.6137 40.5293 83.3337 41.7559 82.7799 42.8569C82.2577 43.8876 81.5117 44.7843 80.5538 45.5247C78.8067 46.8691 76.4533 47.6123 73.9208 47.6123C70.178 47.6123 66.6903 46.076 64.0987 43.282L64.1015 43.2796Z" fill="#124E5D"/>
<path d="M90.6871 46.8603C89.4795 46.3598 88.4153 45.6087 87.4563 44.6787C86.5327 43.7487 85.8221 42.6398 85.2892 41.425C84.7922 40.1734 84.5078 38.8512 84.5078 37.4564C84.5078 36.0616 84.7922 34.7754 85.2892 33.4877C85.8221 32.3075 86.5327 31.1998 87.4563 30.2702C88.4153 29.3402 89.4807 28.5891 90.6871 28.0882C91.9305 27.552 93.2787 27.2656 94.6285 27.2656C96.2626 27.2656 97.9306 27.6947 99.3516 28.4459C100.772 29.197 101.979 30.3059 102.902 31.592L98.5698 34.7025C97.6466 33.4147 96.1913 32.6279 94.6285 32.6279C92.0014 32.6279 89.8348 34.8096 89.8348 37.4552C89.8348 40.1005 92.0014 42.2821 94.6285 42.2821C96.2271 42.2821 97.6821 41.4953 98.5698 40.2079L102.973 43.2466C101.091 45.9993 97.966 47.6448 94.6285 47.6448C93.2787 47.6448 91.9305 47.3941 90.6871 46.8575V46.8603Z" fill="#124E5D"/>
<path d="M122.094 36.6705V47.3979H116.767V36.6705C116.767 34.6317 115.133 32.9521 113.074 32.9521C111.227 32.9521 109.666 34.3469 109.417 36.1696V47.3979H104.09V36.6705H104.055C104.055 36.4203 104.055 36.1339 104.09 35.8837V20.3663L109.417 18.5781V28.3755C110.554 27.8746 111.796 27.5886 113.074 27.5886C115.488 27.5886 117.762 28.5543 119.466 30.2696C121.171 31.9864 122.094 34.2743 122.094 36.6705Z" fill="#124E5D"/>
<path d="M129.842 46.8212C128.634 46.3208 127.533 45.5696 126.611 44.6396C125.687 43.7096 124.941 42.6012 124.445 41.3864C123.913 40.1344 123.664 38.8125 123.664 37.4173C123.664 36.0225 123.913 34.7364 124.445 33.4487C124.943 32.2684 125.689 31.1611 126.612 30.2311C127.536 29.3011 128.637 28.55 129.843 28.0495C131.086 27.5129 132.399 27.2266 133.785 27.2266C135.17 27.2266 136.447 27.5129 137.726 28.0495C138.898 28.55 139.998 29.3011 140.921 30.2311C141.845 31.1611 142.591 32.2339 143.087 33.4487C143.62 34.7364 143.904 36.0582 143.904 37.4173C143.904 38.7764 143.62 40.1344 143.087 41.3864C142.59 42.6023 141.844 43.7096 140.92 44.6396C139.997 45.5696 138.931 46.3208 137.724 46.8212C136.446 47.3578 135.133 47.6081 133.783 47.6081C132.433 47.6081 131.085 47.3578 129.842 46.8212ZM133.783 42.2446C136.411 42.2446 138.577 40.0987 138.577 37.4173C138.577 34.7364 136.411 32.5904 133.783 32.5904C131.156 32.5904 128.989 34.7721 128.989 37.4173C128.989 40.063 131.119 42.2446 133.783 42.2446Z" fill="#124E5D"/>
<path d="M151.347 18.5781V47.3979H145.984V20.3663L151.347 18.5781Z" fill="#124E5D"/>
<path d="M173.297 47.3969H167.971V46.5744C166.586 47.2894 164.988 47.6471 163.425 47.6471C162.04 47.6471 160.727 47.3969 159.484 46.8603C158.276 46.3598 157.176 45.6087 156.253 44.6787C155.33 43.7487 154.584 42.6398 154.086 41.425C153.554 40.1734 153.305 38.8512 153.305 37.4564C153.305 36.0616 153.554 34.7754 154.086 33.4877C154.584 32.2718 155.33 31.1998 156.253 30.2702C157.176 29.3402 158.278 28.5891 159.484 28.0882C160.727 27.552 162.04 27.2656 163.425 27.2656C165.024 27.2656 166.586 27.659 167.971 28.3745V27.2656H173.297V47.3969ZM163.425 42.2837C164.278 42.2837 165.095 42.0691 165.84 41.6396C166.55 41.2105 167.154 40.6025 167.545 39.8871C167.971 39.172 168.184 38.3134 168.184 37.4921C168.184 36.7409 168.042 36.0616 167.758 35.4179C167.367 34.595 166.763 33.9156 166.017 33.4147C165.236 32.9142 164.348 32.6279 163.425 32.6279C160.763 32.6279 158.632 34.8096 158.632 37.4552C158.632 40.1005 160.763 42.2821 163.425 42.2821V42.2837Z" fill="#124E5D"/>
<path d="M176.792 34.0557C177.36 32.6966 178.213 31.4461 179.277 30.3733C180.307 29.3002 181.549 28.4777 182.935 27.8709C184.355 27.2629 185.846 26.9766 187.409 26.9766V32.3404C184 32.3404 181.194 35.1289 181.194 38.5982V47.3942H175.867V38.5982C175.867 37.0246 176.187 35.4878 176.791 34.0573L176.792 34.0557Z" fill="#124E5D"/>
<path d="M187.5 41.9914H195.809C196.342 41.9914 196.732 41.5622 196.732 41.0613C196.732 40.5251 196.306 40.0956 195.809 40.0956H194.317C190.731 40.0956 187.818 37.1645 187.818 33.5519C187.818 29.9394 190.73 27.0078 194.317 27.0078H201.738V32.6219H194.317C193.82 32.6219 193.394 33.051 193.394 33.5519C193.394 34.0885 193.82 34.4819 194.317 34.4819H195.809C199.395 34.4819 202.308 37.4492 202.308 41.0613C202.308 44.6739 199.397 47.6055 195.809 47.6055H187.5V41.9914Z" fill="#124E5D"/>
<path d="M226.516 19.5078H221.712L211.219 47.3975H217.12L224.106 28.0638L231.151 47.3975H237.053L226.516 19.5078Z" fill="#124E5D"/>
<path d="M224.158 47.3959L219.75 40.5234H228.529L224.158 47.3959Z" fill="#FF6700"/>
<path d="M236.492 37.4547C236.492 36.0955 236.741 34.7376 237.274 33.486C237.771 32.2696 238.517 31.1981 239.441 30.2324C240.364 29.3024 241.465 28.5873 242.671 28.0507C243.915 27.5498 245.228 27.2639 246.613 27.2639C247.998 27.2639 249.276 27.5498 250.555 28.0507L251.407 28.4798V18.2891L256.733 20.0773V37.4547C256.733 38.8138 256.449 40.1717 255.917 41.4233C255.42 42.6392 254.674 43.7112 253.75 44.6769C252.826 45.6065 251.725 46.322 250.555 46.8586C249.276 47.3595 247.963 47.6454 246.613 47.6454C245.263 47.6454 243.915 47.3595 242.671 46.8586C241.464 46.322 240.364 45.6065 239.441 44.6769C238.517 43.7112 237.771 42.6381 237.274 41.4233C236.741 40.1717 236.492 38.8138 236.492 37.4547ZM246.613 42.2819C249.24 42.2819 251.407 40.0999 251.407 37.4547C251.407 34.8094 249.24 32.6274 246.613 32.6274C243.986 32.6274 241.819 34.8094 241.819 37.4547C241.819 40.0999 243.95 42.2819 246.613 42.2819Z" fill="#124E5D"/>
<path d="M258.266 37.4547C258.266 36.0955 258.515 34.7376 259.047 33.486C259.544 32.2696 260.29 31.1981 261.214 30.2324C262.138 29.3024 263.239 28.5873 264.445 28.0507C265.688 27.5498 267.001 27.2639 268.387 27.2639C269.772 27.2639 271.049 27.5498 272.328 28.0507L273.18 28.4798V18.2891L278.507 20.0773V37.4547C278.507 38.8138 278.223 40.1717 277.69 41.4233C277.193 42.6392 276.447 43.7112 275.523 44.6769C274.6 45.6065 273.499 46.322 272.328 46.8586C271.049 47.3595 269.736 47.6454 268.387 47.6454C267.037 47.6454 265.688 47.3595 264.445 46.8586C263.237 46.322 262.138 45.6065 261.214 44.6769C260.29 43.7112 259.544 42.6381 259.047 41.4233C258.515 40.1717 258.266 38.8138 258.266 37.4547ZM268.387 42.2819C271.014 42.2819 273.18 40.0999 273.18 37.4547C273.18 34.8094 271.014 32.6274 268.387 32.6274C265.759 32.6274 263.593 34.8094 263.593 37.4547C263.593 40.0999 265.724 42.2819 268.387 42.2819Z" fill="#124E5D"/>
<path d="M300.001 47.3969H294.674V46.5744C293.288 47.2894 291.691 47.6471 290.128 47.6471C288.743 47.6471 287.43 47.3969 286.187 46.8603C284.979 46.3598 283.879 45.6087 282.956 44.6787C282.032 43.7487 281.286 42.6398 280.789 41.425C280.256 40.1734 280.008 38.8512 280.008 37.4564C280.008 36.0616 280.256 34.7754 280.789 33.4877C281.286 32.2718 282.032 31.1998 282.956 30.2702C283.879 29.3402 284.981 28.5891 286.187 28.0882C287.43 27.552 288.743 27.2656 290.128 27.2656C291.727 27.2656 293.288 27.659 294.674 28.3745V27.2656H300.001V47.3969ZM290.128 42.2837C290.981 42.2837 291.798 42.0691 292.542 41.6396C293.253 41.2105 293.857 40.6025 294.247 39.8871C294.674 39.172 294.887 38.3134 294.887 37.4921C294.887 36.7409 294.745 36.0616 294.461 35.4179C294.07 34.595 293.466 33.9156 292.72 33.4147C291.939 32.9142 291.051 32.6279 290.128 32.6279C287.466 32.6279 285.334 34.8096 285.334 37.4552C285.334 40.1005 287.466 42.2821 290.128 42.2821V42.2837Z" fill="#124E5D"/>
<path d="M41.2852 53.1843C41.2852 53.1843 32.4517 49.632 26.0625 54.7119C26.0625 54.7119 33.5577 52.0306 41.7445 55.0003L41.2852 53.1843Z" fill="#C55D28"/>
<path d="M40.6345 52.143L39.4859 50.0728C30.6524 48.3595 26.2656 54.1934 26.2656 54.1934C33.6355 49.3677 40.6345 52.143 40.6345 52.143Z" fill="#DC6A26"/>
<path d="M38.4229 49.3264L36.8857 47.5703C28.3046 47.5703 26.2656 53.7123 26.2656 53.7123C29.8104 48.3187 38.4257 49.3264 38.4257 49.3264H38.4229Z" fill="#FF6700"/>
<path d="M10.8425 53.1843L10.3828 55.0003C18.5672 52.0306 26.0648 54.7119 26.0648 54.7119C19.6787 49.632 10.8425 53.1843 10.8425 53.1843Z" fill="#C55D28"/>
<path d="M25.861 54.1942C25.861 54.1942 21.4742 48.3576 12.6407 50.0736L11.4922 52.1438C11.4922 52.1438 18.4907 49.3685 25.861 54.1942Z" fill="#DC6A26"/>
<path d="M25.86 53.7123C25.86 53.7123 23.8214 47.5703 15.24 47.5703L13.7031 49.3264C13.7031 49.3264 22.3184 48.3187 25.8632 53.7123H25.86Z" fill="#FF6700"/>
<path d="M26.6248 46.3432C26.6248 46.0235 26.3696 45.7665 26.0522 45.7665C25.7347 45.7665 25.4795 46.0263 25.4795 46.3432C25.4795 46.6057 25.6551 46.8286 25.8934 46.8972V50.2579L26.0522 50.3923L26.2081 50.2639V46.8972C26.4492 46.8286 26.6221 46.6057 26.6221 46.3432H26.6248ZM31.3949 35.3239C31.2558 35.1554 31.1085 34.9928 30.9553 34.8385C30.836 34.7188 30.7115 34.6018 30.5808 34.4903C29.3247 33.3993 27.7198 32.7969 26.0577 32.7969C25.984 32.7969 25.9104 32.7969 25.8395 32.7997C24.6855 32.8369 23.5511 33.1653 22.5586 33.7507C22.0509 34.0505 21.5803 34.4162 21.1604 34.8385C21.0072 34.9928 20.8599 35.1554 20.7236 35.3239C19.6972 36.572 19.1328 38.1508 19.1328 39.7729C19.1328 40.6379 19.3455 41.5833 19.7654 42.5796C20.29 43.8304 21.1435 45.1808 22.3002 46.5942C22.4137 46.7314 22.5303 46.8714 22.6492 47.0114C23.0888 47.5254 23.5653 48.045 24.0616 48.5534C24.9151 49.4215 25.5362 49.9553 25.5646 49.9783L25.7316 50.1211C25.3944 48.6533 24.6201 47.3513 23.5539 46.3662C24.2656 45.4009 24.6882 44.2044 24.6882 42.9079C24.6882 42.848 24.6882 42.7882 24.6882 42.7283C25.125 42.8453 25.5842 42.9079 26.0577 42.9079C26.5315 42.9079 26.9907 42.8453 27.4275 42.7283C27.4275 42.7882 27.4275 42.848 27.4275 42.9079C27.4275 44.2044 27.8501 45.4009 28.5618 46.3662C27.4929 47.3541 26.7158 48.6589 26.381 50.1322L26.5598 49.9839L26.591 49.9581C26.795 49.7812 27.8785 48.8246 29.1006 47.4509C29.2424 47.2938 29.3673 47.1483 29.4835 47.0114C29.6024 46.8714 29.719 46.7314 29.8324 46.5942C30.9892 45.1808 31.8427 43.8304 32.3673 42.5796C32.7872 41.5833 32.9999 40.6379 32.9999 39.7729C32.9999 38.1508 32.4355 36.572 31.4091 35.3239H31.3949ZM27.4957 42.277C27.0447 42.4368 26.5571 42.5224 26.0522 42.5224C25.5472 42.5224 25.0596 42.4368 24.6087 42.277C24.5606 42.0144 24.4925 41.7602 24.4074 41.5119C24.9151 41.7201 25.4708 41.8344 26.0549 41.8344C26.639 41.8344 27.192 41.7201 27.7024 41.5119C27.6146 41.7574 27.5465 42.0144 27.5012 42.277H27.4957ZM24.7564 40.6553C25.1561 40.8179 25.5929 40.9091 26.0522 40.9091C26.5114 40.9091 26.9482 40.8179 27.348 40.6553C27.2802 40.8492 27.2263 41.0491 27.1892 41.2577C26.832 41.3834 26.4519 41.4516 26.0522 41.4516C25.6524 41.4516 25.2723 41.3834 24.9151 41.2577C24.8781 41.0519 24.8241 40.8492 24.7564 40.6553ZM26.0608 40.4808C24.8469 40.4808 23.8599 39.4901 23.8599 38.2651C23.8599 37.04 24.8442 36.0493 26.0608 36.0493C27.2771 36.0493 28.2613 37.04 28.2613 38.2651C28.2613 39.4901 27.2771 40.4808 26.0608 40.4808ZM28.3748 38.5248C28.3862 38.4364 28.3889 38.3452 28.3889 38.2567C28.3889 36.9631 27.348 35.9153 26.0636 35.9153C24.7788 35.9153 23.7382 36.9631 23.7382 38.2567C23.7382 38.3479 23.7437 38.4364 23.7524 38.5248C23.4519 38.3535 22.5074 38.2567 21.6905 38.2567C24.0982 38.2567 24.294 37.3969 22.1246 36.3464C24.294 37.4001 24.8383 36.7088 23.3385 34.8155C24.8383 36.7116 25.6268 36.3293 25.0907 33.9648C25.6268 36.3293 26.5004 36.3293 27.036 33.9648C26.5004 36.3293 27.2885 36.7116 28.7887 34.8155C27.2885 36.7116 27.8332 37.4001 30.0026 36.3464C27.8332 37.4001 28.0258 38.2567 30.4362 38.2567C29.6197 38.2567 28.6753 38.3567 28.3748 38.5248Z" fill="#FF6700"/>
<path fill-rule="evenodd" clip-rule="evenodd" d="M50.5252 25.7303C50.5252 25.3333 49.964 24.9994 49.1956 24.8967V13.8231L52.1105 12.3811L39.0828 6.19075L26.0555 0L13.0277 6.19075L0 12.3811L8.27186 16.3133L18.8695 21.0276L10.7024 19.54V27.1295C14.4539 24.3684 18.9628 22.5921 23.8605 22.1812C24.3878 22.1209 24.918 22.0813 25.4568 22.0611C25.7321 22.0496 26.007 22.0412 26.2823 22.0412C26.5375 22.0412 26.7955 22.0468 27.0535 22.0583C28.3209 22.1039 29.5632 22.2582 30.7656 22.5152C34.6905 23.2346 38.3061 24.8396 41.4054 27.1152V17.467L48.2085 14.2915V24.8967C47.4429 24.9994 46.8785 25.3333 46.8785 25.7303C46.8785 25.9504 47.0514 26.1531 47.3381 26.3042C47.0262 26.6897 46.8332 27.2096 46.8332 27.7747V32.8661H47.1223H50.5678V27.7747C50.5678 27.2068 50.3752 26.6897 50.0632 26.3042C50.3496 26.1503 50.5225 25.9504 50.5225 25.7303H50.5252Z" fill="#124E5D"/>
<path d="M26.066 23.8359C11.6744 23.8359 0.0078125 35.5833 0.0078125 50.0747C0.0078125 51.7594 0.166935 53.404 0.467451 55.0003H5.19457C5.0386 53.8867 4.95943 52.7473 4.95943 51.5908C4.95943 38.1104 15.8119 27.1824 29.1996 27.1824C37.2276 27.1824 44.3455 31.1145 48.7583 37.1681C44.2833 29.2097 35.7987 23.8359 26.066 23.8359Z" fill="#FF6700"/>
</svg>
