<svg width="592" height="86" viewBox="0 0 592 86" fill="none" xmlns="http://www.w3.org/2000/svg">
<path d="M196.32 13.37L189.316 37H184.93L179.966 19.116L174.696 37L170.344 37.034L163.646 13.37H167.76L172.656 32.614L177.96 13.37H182.312L187.242 32.512L192.172 13.37H196.32ZM216.687 27.174C216.687 27.8767 216.641 28.5113 216.551 29.078H202.237C202.35 30.574 202.905 31.7753 203.903 32.682C204.9 33.5887 206.124 34.042 207.575 34.042C209.66 34.042 211.133 33.1693 211.995 31.424H216.177C215.61 33.1467 214.579 34.5633 213.083 35.674C211.609 36.762 209.773 37.306 207.575 37.306C205.784 37.306 204.175 36.9093 202.747 36.116C201.341 35.3 200.231 34.1667 199.415 32.716C198.621 31.2427 198.225 29.5427 198.225 27.616C198.225 25.6893 198.61 24.0007 199.381 22.55C200.174 21.0767 201.273 19.9433 202.679 19.15C204.107 18.3567 205.739 17.96 207.575 17.96C209.343 17.96 210.918 18.3453 212.301 19.116C213.683 19.8867 214.76 20.9747 215.531 22.38C216.301 23.7627 216.687 25.3607 216.687 27.174ZM212.641 25.95C212.618 24.522 212.108 23.3773 211.111 22.516C210.113 21.6547 208.878 21.224 207.405 21.224C206.067 21.224 204.923 21.6547 203.971 22.516C203.019 23.3547 202.452 24.4993 202.271 25.95H212.641ZM224.377 11.84V37H220.501V11.84H224.377ZM228.174 27.616C228.174 25.6893 228.559 24.0007 229.33 22.55C230.123 21.0767 231.211 19.9433 232.594 19.15C233.977 18.3567 235.563 17.96 237.354 17.96C239.621 17.96 241.491 18.504 242.964 19.592C244.46 20.6573 245.469 22.1873 245.99 24.182H241.808C241.468 23.2527 240.924 22.5273 240.176 22.006C239.428 21.4847 238.487 21.224 237.354 21.224C235.767 21.224 234.498 21.7907 233.546 22.924C232.617 24.0347 232.152 25.5987 232.152 27.616C232.152 29.6333 232.617 31.2087 233.546 32.342C234.498 33.4753 235.767 34.042 237.354 34.042C239.598 34.042 241.083 33.056 241.808 31.084H245.99C245.446 32.988 244.426 34.5067 242.93 35.64C241.434 36.7507 239.575 37.306 237.354 37.306C235.563 37.306 233.977 36.9093 232.594 36.116C231.211 35.3 230.123 34.1667 229.33 32.716C228.559 31.2427 228.174 29.5427 228.174 27.616ZM257.979 37.306C256.211 37.306 254.613 36.9093 253.185 36.116C251.757 35.3 250.635 34.1667 249.819 32.716C249.003 31.2427 248.595 29.5427 248.595 27.616C248.595 25.712 249.014 24.0233 249.853 22.55C250.691 21.0767 251.836 19.9433 253.287 19.15C254.737 18.3567 256.358 17.96 258.149 17.96C259.939 17.96 261.56 18.3567 263.011 19.15C264.461 19.9433 265.606 21.0767 266.445 22.55C267.283 24.0233 267.703 25.712 267.703 27.616C267.703 29.52 267.272 31.2087 266.411 32.682C265.549 34.1553 264.371 35.3 262.875 36.116C261.401 36.9093 259.769 37.306 257.979 37.306ZM257.979 33.94C258.976 33.94 259.905 33.702 260.767 33.226C261.651 32.75 262.365 32.036 262.909 31.084C263.453 30.132 263.725 28.976 263.725 27.616C263.725 26.256 263.464 25.1113 262.943 24.182C262.421 23.23 261.73 22.516 260.869 22.04C260.007 21.564 259.078 21.326 258.081 21.326C257.083 21.326 256.154 21.564 255.293 22.04C254.454 22.516 253.785 23.23 253.287 24.182C252.788 25.1113 252.539 26.256 252.539 27.616C252.539 29.6333 253.049 31.1973 254.069 32.308C255.111 33.396 256.415 33.94 257.979 33.94ZM294.212 17.96C295.686 17.96 297 18.266 298.156 18.878C299.335 19.49 300.253 20.3967 300.91 21.598C301.59 22.7993 301.93 24.25 301.93 25.95V37H298.088V26.528C298.088 24.8507 297.669 23.57 296.83 22.686C295.992 21.7793 294.847 21.326 293.396 21.326C291.946 21.326 290.79 21.7793 289.928 22.686C289.09 23.57 288.67 24.8507 288.67 26.528V37H284.828V26.528C284.828 24.8507 284.409 23.57 283.57 22.686C282.732 21.7793 281.587 21.326 280.136 21.326C278.686 21.326 277.53 21.7793 276.668 22.686C275.83 23.57 275.41 24.8507 275.41 26.528V37H271.534V18.266H275.41V20.408C276.045 19.6373 276.85 19.0367 277.824 18.606C278.799 18.1753 279.842 17.96 280.952 17.96C282.448 17.96 283.786 18.2773 284.964 18.912C286.143 19.5467 287.05 20.4647 287.684 21.666C288.251 20.5327 289.135 19.6373 290.336 18.98C291.538 18.3 292.83 17.96 294.212 17.96ZM324.033 27.174C324.033 27.8767 323.987 28.5113 323.897 29.078H309.583C309.696 30.574 310.251 31.7753 311.249 32.682C312.246 33.5887 313.47 34.042 314.921 34.042C317.006 34.042 318.479 33.1693 319.341 31.424H323.522C322.956 33.1467 321.925 34.5633 320.429 35.674C318.955 36.762 317.119 37.306 314.921 37.306C313.13 37.306 311.521 36.9093 310.093 36.116C308.687 35.3 307.577 34.1667 306.761 32.716C305.967 31.2427 305.571 29.5427 305.571 27.616C305.571 25.6893 305.956 24.0007 306.727 22.55C307.52 21.0767 308.619 19.9433 310.025 19.15C311.453 18.3567 313.085 17.96 314.921 17.96C316.689 17.96 318.264 18.3453 319.647 19.116C321.029 19.8867 322.106 20.9747 322.877 22.38C323.647 23.7627 324.033 25.3607 324.033 27.174ZM319.987 25.95C319.964 24.522 319.454 23.3773 318.457 22.516C317.459 21.6547 316.224 21.224 314.751 21.224C313.413 21.224 312.269 21.6547 311.317 22.516C310.365 23.3547 309.798 24.4993 309.617 25.95H319.987ZM349.327 24.862C350.596 25.0887 351.673 25.7573 352.557 26.868C353.441 27.9787 353.883 29.2367 353.883 30.642C353.883 31.8433 353.566 32.9313 352.931 33.906C352.319 34.858 351.424 35.6173 350.245 36.184C349.066 36.728 347.695 37 346.131 37H336.679V13.37H345.689C347.298 13.37 348.681 13.642 349.837 14.186C350.993 14.73 351.866 15.4667 352.455 16.396C353.044 17.3027 353.339 18.3227 353.339 19.456C353.339 20.816 352.976 21.9493 352.251 22.856C351.526 23.7627 350.551 24.4313 349.327 24.862ZM340.555 23.298H345.349C346.618 23.298 347.604 23.0147 348.307 22.448C349.032 21.8587 349.395 21.02 349.395 19.932C349.395 18.8667 349.032 18.0393 348.307 17.45C347.604 16.838 346.618 16.532 345.349 16.532H340.555V23.298ZM345.791 33.838C347.106 33.838 348.137 33.5207 348.885 32.886C349.633 32.2513 350.007 31.3673 350.007 30.234C350.007 29.078 349.61 28.16 348.817 27.48C348.024 26.8 346.97 26.46 345.655 26.46H340.555V33.838H345.791ZM356.803 27.548C356.803 25.6667 357.188 24.0007 357.959 22.55C358.752 21.0993 359.818 19.9773 361.155 19.184C362.515 18.368 364.011 17.96 365.643 17.96C367.116 17.96 368.397 18.2547 369.485 18.844C370.596 19.4107 371.48 20.1247 372.137 20.986V18.266H376.047V37H372.137V34.212C371.48 35.096 370.584 35.8327 369.451 36.422C368.318 37.0113 367.026 37.306 365.575 37.306C363.966 37.306 362.492 36.898 361.155 36.082C359.818 35.2433 358.752 34.0873 357.959 32.614C357.188 31.118 356.803 29.4293 356.803 27.548ZM372.137 27.616C372.137 26.324 371.865 25.202 371.321 24.25C370.8 23.298 370.108 22.5727 369.247 22.074C368.386 21.5753 367.456 21.326 366.459 21.326C365.462 21.326 364.532 21.5753 363.671 22.074C362.81 22.55 362.107 23.264 361.563 24.216C361.042 25.1453 360.781 26.256 360.781 27.548C360.781 28.84 361.042 29.9733 361.563 30.948C362.107 31.9227 362.81 32.6707 363.671 33.192C364.555 33.6907 365.484 33.94 366.459 33.94C367.456 33.94 368.386 33.6907 369.247 33.192C370.108 32.6933 370.8 31.968 371.321 31.016C371.865 30.0413 372.137 28.908 372.137 27.616ZM379.846 27.616C379.846 25.6893 380.231 24.0007 381.002 22.55C381.795 21.0767 382.883 19.9433 384.266 19.15C385.649 18.3567 387.235 17.96 389.026 17.96C391.293 17.96 393.163 18.504 394.636 19.592C396.132 20.6573 397.141 22.1873 397.662 24.182H393.48C393.14 23.2527 392.596 22.5273 391.848 22.006C391.1 21.4847 390.159 21.224 389.026 21.224C387.439 21.224 386.17 21.7907 385.218 22.924C384.289 24.0347 383.824 25.5987 383.824 27.616C383.824 29.6333 384.289 31.2087 385.218 32.342C386.17 33.4753 387.439 34.042 389.026 34.042C391.27 34.042 392.755 33.056 393.48 31.084H397.662C397.118 32.988 396.098 34.5067 394.602 35.64C393.106 36.7507 391.247 37.306 389.026 37.306C387.235 37.306 385.649 36.9093 384.266 36.116C382.883 35.3 381.795 34.1667 381.002 32.716C380.231 31.2427 379.846 29.5427 379.846 27.616ZM408.937 27.65L417.573 37H412.337L405.401 28.942V37H401.525V11.84H405.401V26.46L412.201 18.266H417.573L408.937 27.65ZM425.213 13.37L424.771 29.86H421.541L421.099 13.37H425.213ZM423.275 37.238C422.572 37.238 421.983 37 421.507 36.524C421.031 36.048 420.793 35.4587 420.793 34.756C420.793 34.0533 421.031 33.464 421.507 32.988C421.983 32.512 422.572 32.274 423.275 32.274C423.955 32.274 424.533 32.512 425.009 32.988C425.485 33.464 425.723 34.0533 425.723 34.756C425.723 35.4587 425.485 36.048 425.009 36.524C424.533 37 423.955 37.238 423.275 37.238Z" fill="black"/>
<path d="M117.774 70.126C117.774 71.17 117.414 72.04 116.694 72.736C115.986 73.42 114.9 73.762 113.436 73.762H111.024V79H109.386V66.454H113.436C114.852 66.454 115.926 66.796 116.658 67.48C117.402 68.164 117.774 69.046 117.774 70.126ZM113.436 72.412C114.348 72.412 115.02 72.214 115.452 71.818C115.884 71.422 116.1 70.858 116.1 70.126C116.1 68.578 115.212 67.804 113.436 67.804H111.024V72.412H113.436ZM121.448 65.68V79H119.81V65.68H121.448ZM133.24 73.69C133.24 74.002 133.222 74.332 133.186 74.68H125.302C125.362 75.652 125.692 76.414 126.292 76.966C126.904 77.506 127.642 77.776 128.506 77.776C129.214 77.776 129.802 77.614 130.27 77.29C130.75 76.954 131.086 76.51 131.278 75.958H133.042C132.778 76.906 132.25 77.68 131.458 78.28C130.666 78.868 129.682 79.162 128.506 79.162C127.57 79.162 126.73 78.952 125.986 78.532C125.254 78.112 124.678 77.518 124.258 76.75C123.838 75.97 123.628 75.07 123.628 74.05C123.628 73.03 123.832 72.136 124.24 71.368C124.648 70.6 125.218 70.012 125.95 69.604C126.694 69.184 127.546 68.974 128.506 68.974C129.442 68.974 130.27 69.178 130.99 69.586C131.71 69.994 132.262 70.558 132.646 71.278C133.042 71.986 133.24 72.79 133.24 73.69ZM131.548 73.348C131.548 72.724 131.41 72.19 131.134 71.746C130.858 71.29 130.48 70.948 130 70.72C129.532 70.48 129.01 70.36 128.434 70.36C127.606 70.36 126.898 70.624 126.31 71.152C125.734 71.68 125.404 72.412 125.32 73.348H131.548ZM134.79 74.032C134.79 73.024 134.994 72.142 135.402 71.386C135.81 70.618 136.368 70.024 137.076 69.604C137.796 69.184 138.594 68.974 139.47 68.974C140.334 68.974 141.084 69.16 141.72 69.532C142.356 69.904 142.83 70.372 143.142 70.936V69.136H144.798V79H143.142V77.164C142.818 77.74 142.332 78.22 141.684 78.604C141.048 78.976 140.304 79.162 139.452 79.162C138.576 79.162 137.784 78.946 137.076 78.514C136.368 78.082 135.81 77.476 135.402 76.696C134.994 75.916 134.79 75.028 134.79 74.032ZM143.142 74.05C143.142 73.306 142.992 72.658 142.692 72.106C142.392 71.554 141.984 71.134 141.468 70.846C140.964 70.546 140.406 70.396 139.794 70.396C139.182 70.396 138.624 70.54 138.12 70.828C137.616 71.116 137.214 71.536 136.914 72.088C136.614 72.64 136.464 73.288 136.464 74.032C136.464 74.788 136.614 75.448 136.914 76.012C137.214 76.564 137.616 76.99 138.12 77.29C138.624 77.578 139.182 77.722 139.794 77.722C140.406 77.722 140.964 77.578 141.468 77.29C141.984 76.99 142.392 76.564 142.692 76.012C142.992 75.448 143.142 74.794 143.142 74.05ZM151.058 79.162C150.302 79.162 149.624 79.036 149.024 78.784C148.424 78.52 147.95 78.16 147.602 77.704C147.254 77.236 147.062 76.702 147.026 76.102H148.718C148.766 76.594 148.994 76.996 149.402 77.308C149.822 77.62 150.368 77.776 151.04 77.776C151.664 77.776 152.156 77.638 152.516 77.362C152.876 77.086 153.056 76.738 153.056 76.318C153.056 75.886 152.864 75.568 152.48 75.364C152.096 75.148 151.502 74.938 150.698 74.734C149.966 74.542 149.366 74.35 148.898 74.158C148.442 73.954 148.046 73.66 147.71 73.276C147.386 72.88 147.224 72.364 147.224 71.728C147.224 71.224 147.374 70.762 147.674 70.342C147.974 69.922 148.4 69.592 148.952 69.352C149.504 69.1 150.134 68.974 150.842 68.974C151.934 68.974 152.816 69.25 153.488 69.802C154.16 70.354 154.52 71.11 154.568 72.07H152.93C152.894 71.554 152.684 71.14 152.3 70.828C151.928 70.516 151.424 70.36 150.788 70.36C150.2 70.36 149.732 70.486 149.384 70.738C149.036 70.99 148.862 71.32 148.862 71.728C148.862 72.052 148.964 72.322 149.168 72.538C149.384 72.742 149.648 72.91 149.96 73.042C150.284 73.162 150.728 73.3 151.292 73.456C152 73.648 152.576 73.84 153.02 74.032C153.464 74.212 153.842 74.488 154.154 74.86C154.478 75.232 154.646 75.718 154.658 76.318C154.658 76.858 154.508 77.344 154.208 77.776C153.908 78.208 153.482 78.55 152.93 78.802C152.39 79.042 151.766 79.162 151.058 79.162ZM165.97 73.69C165.97 74.002 165.952 74.332 165.916 74.68H158.032C158.092 75.652 158.422 76.414 159.022 76.966C159.634 77.506 160.372 77.776 161.236 77.776C161.944 77.776 162.532 77.614 163 77.29C163.48 76.954 163.816 76.51 164.008 75.958H165.772C165.508 76.906 164.98 77.68 164.188 78.28C163.396 78.868 162.412 79.162 161.236 79.162C160.3 79.162 159.46 78.952 158.716 78.532C157.984 78.112 157.408 77.518 156.988 76.75C156.568 75.97 156.358 75.07 156.358 74.05C156.358 73.03 156.562 72.136 156.97 71.368C157.378 70.6 157.948 70.012 158.68 69.604C159.424 69.184 160.276 68.974 161.236 68.974C162.172 68.974 163 69.178 163.72 69.586C164.44 69.994 164.992 70.558 165.376 71.278C165.772 71.986 165.97 72.79 165.97 73.69ZM164.278 73.348C164.278 72.724 164.14 72.19 163.864 71.746C163.588 71.29 163.21 70.948 162.73 70.72C162.262 70.48 161.74 70.36 161.164 70.36C160.336 70.36 159.628 70.624 159.04 71.152C158.464 71.68 158.134 72.412 158.05 73.348H164.278ZM174.569 65.68V79H172.931V65.68H174.569ZM181.663 79.162C180.739 79.162 179.899 78.952 179.143 78.532C178.399 78.112 177.811 77.518 177.379 76.75C176.959 75.97 176.749 75.07 176.749 74.05C176.749 73.042 176.965 72.154 177.397 71.386C177.841 70.606 178.441 70.012 179.197 69.604C179.953 69.184 180.799 68.974 181.735 68.974C182.671 68.974 183.517 69.184 184.273 69.604C185.029 70.012 185.623 70.6 186.055 71.368C186.499 72.136 186.721 73.03 186.721 74.05C186.721 75.07 186.493 75.97 186.037 76.75C185.593 77.518 184.987 78.112 184.219 78.532C183.451 78.952 182.599 79.162 181.663 79.162ZM181.663 77.722C182.251 77.722 182.803 77.584 183.319 77.308C183.835 77.032 184.249 76.618 184.561 76.066C184.885 75.514 185.047 74.842 185.047 74.05C185.047 73.258 184.891 72.586 184.579 72.034C184.267 71.482 183.859 71.074 183.355 70.81C182.851 70.534 182.305 70.396 181.717 70.396C181.117 70.396 180.565 70.534 180.061 70.81C179.569 71.074 179.173 71.482 178.873 72.034C178.573 72.586 178.423 73.258 178.423 74.05C178.423 74.854 178.567 75.532 178.855 76.084C179.155 76.636 179.551 77.05 180.043 77.326C180.535 77.59 181.075 77.722 181.663 77.722ZM192.942 68.974C193.794 68.974 194.538 69.16 195.174 69.532C195.822 69.904 196.302 70.372 196.614 70.936V69.136H198.27V79.216C198.27 80.116 198.078 80.914 197.694 81.61C197.31 82.318 196.758 82.87 196.038 83.266C195.33 83.662 194.502 83.86 193.554 83.86C192.258 83.86 191.178 83.554 190.314 82.942C189.45 82.33 188.94 81.496 188.784 80.44H190.404C190.584 81.04 190.956 81.52 191.52 81.88C192.084 82.252 192.762 82.438 193.554 82.438C194.454 82.438 195.186 82.156 195.75 81.592C196.326 81.028 196.614 80.236 196.614 79.216V77.146C196.29 77.722 195.81 78.202 195.174 78.586C194.538 78.97 193.794 79.162 192.942 79.162C192.066 79.162 191.268 78.946 190.548 78.514C189.84 78.082 189.282 77.476 188.874 76.696C188.466 75.916 188.262 75.028 188.262 74.032C188.262 73.024 188.466 72.142 188.874 71.386C189.282 70.618 189.84 70.024 190.548 69.604C191.268 69.184 192.066 68.974 192.942 68.974ZM196.614 74.05C196.614 73.306 196.464 72.658 196.164 72.106C195.864 71.554 195.456 71.134 194.94 70.846C194.436 70.546 193.878 70.396 193.266 70.396C192.654 70.396 192.096 70.54 191.592 70.828C191.088 71.116 190.686 71.536 190.386 72.088C190.086 72.64 189.936 73.288 189.936 74.032C189.936 74.788 190.086 75.448 190.386 76.012C190.686 76.564 191.088 76.99 191.592 77.29C192.096 77.578 192.654 77.722 193.266 77.722C193.878 77.722 194.436 77.578 194.94 77.29C195.456 76.99 195.864 76.564 196.164 76.012C196.464 75.448 196.614 74.794 196.614 74.05ZM201.884 67.534C201.572 67.534 201.308 67.426 201.092 67.21C200.876 66.994 200.768 66.73 200.768 66.418C200.768 66.106 200.876 65.842 201.092 65.626C201.308 65.41 201.572 65.302 201.884 65.302C202.184 65.302 202.436 65.41 202.64 65.626C202.856 65.842 202.964 66.106 202.964 66.418C202.964 66.73 202.856 66.994 202.64 67.21C202.436 67.426 202.184 67.534 201.884 67.534ZM202.676 69.136V79H201.038V69.136H202.676ZM210.274 68.956C211.474 68.956 212.446 69.322 213.19 70.054C213.934 70.774 214.306 71.818 214.306 73.186V79H212.686V73.42C212.686 72.436 212.44 71.686 211.948 71.17C211.456 70.642 210.784 70.378 209.932 70.378C209.068 70.378 208.378 70.648 207.862 71.188C207.358 71.728 207.106 72.514 207.106 73.546V79H205.468V69.136H207.106V70.54C207.43 70.036 207.868 69.646 208.42 69.37C208.984 69.094 209.602 68.956 210.274 68.956ZM223.779 70.486V76.3C223.779 76.78 223.881 77.122 224.085 77.326C224.289 77.518 224.643 77.614 225.147 77.614H226.353V79H224.877C223.965 79 223.281 78.79 222.825 78.37C222.369 77.95 222.141 77.26 222.141 76.3V70.486H220.863V69.136H222.141V66.652H223.779V69.136H226.353V70.486H223.779ZM232.639 79.162C231.715 79.162 230.875 78.952 230.119 78.532C229.375 78.112 228.787 77.518 228.355 76.75C227.935 75.97 227.725 75.07 227.725 74.05C227.725 73.042 227.941 72.154 228.373 71.386C228.817 70.606 229.417 70.012 230.173 69.604C230.929 69.184 231.775 68.974 232.711 68.974C233.647 68.974 234.493 69.184 235.249 69.604C236.005 70.012 236.599 70.6 237.031 71.368C237.475 72.136 237.697 73.03 237.697 74.05C237.697 75.07 237.469 75.97 237.013 76.75C236.569 77.518 235.963 78.112 235.195 78.532C234.427 78.952 233.575 79.162 232.639 79.162ZM232.639 77.722C233.227 77.722 233.779 77.584 234.295 77.308C234.811 77.032 235.225 76.618 235.537 76.066C235.861 75.514 236.023 74.842 236.023 74.05C236.023 73.258 235.867 72.586 235.555 72.034C235.243 71.482 234.835 71.074 234.331 70.81C233.827 70.534 233.281 70.396 232.693 70.396C232.093 70.396 231.541 70.534 231.037 70.81C230.545 71.074 230.149 71.482 229.849 72.034C229.549 72.586 229.399 73.258 229.399 74.05C229.399 74.854 229.543 75.532 229.831 76.084C230.131 76.636 230.527 77.05 231.019 77.326C231.511 77.59 232.051 77.722 232.639 77.722ZM253.146 69.136L247.206 83.644H245.514L247.458 78.892L243.48 69.136H245.298L248.394 77.128L251.454 69.136H253.146ZM259.094 79.162C258.17 79.162 257.33 78.952 256.574 78.532C255.83 78.112 255.242 77.518 254.81 76.75C254.39 75.97 254.18 75.07 254.18 74.05C254.18 73.042 254.396 72.154 254.828 71.386C255.272 70.606 255.872 70.012 256.628 69.604C257.384 69.184 258.23 68.974 259.166 68.974C260.102 68.974 260.948 69.184 261.704 69.604C262.46 70.012 263.054 70.6 263.486 71.368C263.93 72.136 264.152 73.03 264.152 74.05C264.152 75.07 263.924 75.97 263.468 76.75C263.024 77.518 262.418 78.112 261.65 78.532C260.882 78.952 260.03 79.162 259.094 79.162ZM259.094 77.722C259.682 77.722 260.234 77.584 260.75 77.308C261.266 77.032 261.68 76.618 261.992 76.066C262.316 75.514 262.478 74.842 262.478 74.05C262.478 73.258 262.322 72.586 262.01 72.034C261.698 71.482 261.29 71.074 260.786 70.81C260.282 70.534 259.736 70.396 259.148 70.396C258.548 70.396 257.996 70.534 257.492 70.81C257 71.074 256.604 71.482 256.304 72.034C256.004 72.586 255.854 73.258 255.854 74.05C255.854 74.854 255.998 75.532 256.286 76.084C256.586 76.636 256.982 77.05 257.474 77.326C257.966 77.59 258.506 77.722 259.094 77.722ZM275.054 69.136V79H273.416V77.542C273.104 78.046 272.666 78.442 272.102 78.73C271.55 79.006 270.938 79.144 270.266 79.144C269.498 79.144 268.808 78.988 268.196 78.676C267.584 78.352 267.098 77.872 266.738 77.236C266.39 76.6 266.216 75.826 266.216 74.914V69.136H267.836V74.698C267.836 75.67 268.082 76.42 268.574 76.948C269.066 77.464 269.738 77.722 270.59 77.722C271.466 77.722 272.156 77.452 272.66 76.912C273.164 76.372 273.416 75.586 273.416 74.554V69.136H275.054ZM279.458 70.738C279.746 70.174 280.154 69.736 280.682 69.424C281.222 69.112 281.876 68.956 282.644 68.956V70.648H282.212C280.376 70.648 279.458 71.644 279.458 73.636V79H277.82V69.136H279.458V70.738ZM293.311 79.126C292.483 79.126 291.739 78.982 291.079 78.694C290.431 78.394 289.921 77.986 289.549 77.47C289.177 76.942 288.985 76.336 288.973 75.652H290.719C290.779 76.24 291.019 76.738 291.439 77.146C291.871 77.542 292.495 77.74 293.311 77.74C294.091 77.74 294.703 77.548 295.147 77.164C295.603 76.768 295.831 76.264 295.831 75.652C295.831 75.172 295.699 74.782 295.435 74.482C295.171 74.182 294.841 73.954 294.445 73.798C294.049 73.642 293.515 73.474 292.843 73.294C292.015 73.078 291.349 72.862 290.845 72.646C290.353 72.43 289.927 72.094 289.567 71.638C289.219 71.17 289.045 70.546 289.045 69.766C289.045 69.082 289.219 68.476 289.567 67.948C289.915 67.42 290.401 67.012 291.025 66.724C291.661 66.436 292.387 66.292 293.203 66.292C294.379 66.292 295.339 66.586 296.083 67.174C296.839 67.762 297.265 68.542 297.361 69.514H295.561C295.501 69.034 295.249 68.614 294.805 68.254C294.361 67.882 293.773 67.696 293.041 67.696C292.357 67.696 291.799 67.876 291.367 68.236C290.935 68.584 290.719 69.076 290.719 69.712C290.719 70.168 290.845 70.54 291.097 70.828C291.361 71.116 291.679 71.338 292.051 71.494C292.435 71.638 292.969 71.806 293.653 71.998C294.481 72.226 295.147 72.454 295.651 72.682C296.155 72.898 296.587 73.24 296.947 73.708C297.307 74.164 297.487 74.788 297.487 75.58C297.487 76.192 297.325 76.768 297.001 77.308C296.677 77.848 296.197 78.286 295.561 78.622C294.925 78.958 294.175 79.126 293.311 79.126ZM308.646 69.136V79H307.008V77.542C306.696 78.046 306.258 78.442 305.694 78.73C305.142 79.006 304.53 79.144 303.858 79.144C303.09 79.144 302.4 78.988 301.788 78.676C301.176 78.352 300.69 77.872 300.33 77.236C299.982 76.6 299.808 75.826 299.808 74.914V69.136H301.428V74.698C301.428 75.67 301.674 76.42 302.166 76.948C302.658 77.464 303.33 77.722 304.182 77.722C305.058 77.722 305.748 77.452 306.252 76.912C306.756 76.372 307.008 75.586 307.008 74.554V69.136H308.646ZM313.049 70.954C313.373 70.39 313.853 69.922 314.489 69.55C315.137 69.166 315.887 68.974 316.739 68.974C317.615 68.974 318.407 69.184 319.115 69.604C319.835 70.024 320.399 70.618 320.807 71.386C321.215 72.142 321.419 73.024 321.419 74.032C321.419 75.028 321.215 75.916 320.807 76.696C320.399 77.476 319.835 78.082 319.115 78.514C318.407 78.946 317.615 79.162 316.739 79.162C315.899 79.162 315.155 78.976 314.507 78.604C313.871 78.22 313.385 77.746 313.049 77.182V83.68H311.411V69.136H313.049V70.954ZM319.745 74.032C319.745 73.288 319.595 72.64 319.295 72.088C318.995 71.536 318.587 71.116 318.071 70.828C317.567 70.54 317.009 70.396 316.397 70.396C315.797 70.396 315.239 70.546 314.723 70.846C314.219 71.134 313.811 71.56 313.499 72.124C313.199 72.676 313.049 73.318 313.049 74.05C313.049 74.794 313.199 75.448 313.499 76.012C313.811 76.564 314.219 76.99 314.723 77.29C315.239 77.578 315.797 77.722 316.397 77.722C317.009 77.722 317.567 77.578 318.071 77.29C318.587 76.99 318.995 76.564 319.295 76.012C319.595 75.448 319.745 74.788 319.745 74.032ZM332.575 73.69C332.575 74.002 332.557 74.332 332.521 74.68H324.637C324.697 75.652 325.027 76.414 325.627 76.966C326.239 77.506 326.977 77.776 327.841 77.776C328.549 77.776 329.137 77.614 329.605 77.29C330.085 76.954 330.421 76.51 330.613 75.958H332.377C332.113 76.906 331.585 77.68 330.793 78.28C330.001 78.868 329.017 79.162 327.841 79.162C326.905 79.162 326.065 78.952 325.321 78.532C324.589 78.112 324.013 77.518 323.593 76.75C323.173 75.97 322.963 75.07 322.963 74.05C322.963 73.03 323.167 72.136 323.575 71.368C323.983 70.6 324.553 70.012 325.285 69.604C326.029 69.184 326.881 68.974 327.841 68.974C328.777 68.974 329.605 69.178 330.325 69.586C331.045 69.994 331.597 70.558 331.981 71.278C332.377 71.986 332.575 72.79 332.575 73.69ZM330.883 73.348C330.883 72.724 330.745 72.19 330.469 71.746C330.193 71.29 329.815 70.948 329.335 70.72C328.867 70.48 328.345 70.36 327.769 70.36C326.941 70.36 326.233 70.624 325.645 71.152C325.069 71.68 324.739 72.412 324.655 73.348H330.883ZM336.376 70.738C336.664 70.174 337.072 69.736 337.6 69.424C338.14 69.112 338.794 68.956 339.562 68.956V70.648H339.13C337.294 70.648 336.376 71.644 336.376 73.636V79H334.738V69.136H336.376V70.738ZM353.667 76.21H348.195L347.187 79H345.459L349.995 66.526H351.885L356.403 79H354.675L353.667 76.21ZM353.199 74.878L350.931 68.542L348.663 74.878H353.199ZM357.768 74.032C357.768 73.024 357.972 72.142 358.38 71.386C358.788 70.618 359.346 70.024 360.054 69.604C360.774 69.184 361.578 68.974 362.466 68.974C363.234 68.974 363.948 69.154 364.608 69.514C365.268 69.862 365.772 70.324 366.12 70.9V65.68H367.776V79H366.12V77.146C365.796 77.734 365.316 78.22 364.68 78.604C364.044 78.976 363.3 79.162 362.448 79.162C361.572 79.162 360.774 78.946 360.054 78.514C359.346 78.082 358.788 77.476 358.38 76.696C357.972 75.916 357.768 75.028 357.768 74.032ZM366.12 74.05C366.12 73.306 365.97 72.658 365.67 72.106C365.37 71.554 364.962 71.134 364.446 70.846C363.942 70.546 363.384 70.396 362.772 70.396C362.16 70.396 361.602 70.54 361.098 70.828C360.594 71.116 360.192 71.536 359.892 72.088C359.592 72.64 359.442 73.288 359.442 74.032C359.442 74.788 359.592 75.448 359.892 76.012C360.192 76.564 360.594 76.99 361.098 77.29C361.602 77.578 362.16 77.722 362.772 77.722C363.384 77.722 363.942 77.578 364.446 77.29C364.962 76.99 365.37 76.564 365.67 76.012C365.97 75.448 366.12 74.794 366.12 74.05ZM382.406 68.956C383.174 68.956 383.858 69.118 384.458 69.442C385.058 69.754 385.532 70.228 385.88 70.864C386.228 71.5 386.402 72.274 386.402 73.186V79H384.782V73.42C384.782 72.436 384.536 71.686 384.044 71.17C383.564 70.642 382.91 70.378 382.082 70.378C381.23 70.378 380.552 70.654 380.048 71.206C379.544 71.746 379.292 72.532 379.292 73.564V79H377.672V73.42C377.672 72.436 377.426 71.686 376.934 71.17C376.454 70.642 375.8 70.378 374.972 70.378C374.12 70.378 373.442 70.654 372.938 71.206C372.434 71.746 372.182 72.532 372.182 73.564V79H370.544V69.136H372.182V70.558C372.506 70.042 372.938 69.646 373.478 69.37C374.03 69.094 374.636 68.956 375.296 68.956C376.124 68.956 376.856 69.142 377.492 69.514C378.128 69.886 378.602 70.432 378.914 71.152C379.19 70.456 379.646 69.916 380.282 69.532C380.918 69.148 381.626 68.956 382.406 68.956ZM389.935 67.534C389.623 67.534 389.359 67.426 389.143 67.21C388.927 66.994 388.819 66.73 388.819 66.418C388.819 66.106 388.927 65.842 389.143 65.626C389.359 65.41 389.623 65.302 389.935 65.302C390.235 65.302 390.487 65.41 390.691 65.626C390.907 65.842 391.015 66.106 391.015 66.418C391.015 66.73 390.907 66.994 390.691 67.21C390.487 67.426 390.235 67.534 389.935 67.534ZM390.727 69.136V79H389.089V69.136H390.727ZM398.325 68.956C399.525 68.956 400.497 69.322 401.241 70.054C401.985 70.774 402.357 71.818 402.357 73.186V79H400.737V73.42C400.737 72.436 400.491 71.686 399.999 71.17C399.507 70.642 398.835 70.378 397.983 70.378C397.119 70.378 396.429 70.648 395.913 71.188C395.409 71.728 395.157 72.514 395.157 73.546V79H393.519V69.136H395.157V70.54C395.481 70.036 395.919 69.646 396.471 69.37C397.035 69.094 397.653 68.956 398.325 68.956ZM417.247 76.21H411.775L410.767 79H409.039L413.575 66.526H415.465L419.983 79H418.255L417.247 76.21ZM416.779 74.878L414.511 68.542L412.243 74.878H416.779ZM421.348 74.05C421.348 73.03 421.552 72.142 421.96 71.386C422.368 70.618 422.932 70.024 423.652 69.604C424.384 69.184 425.218 68.974 426.154 68.974C427.366 68.974 428.362 69.268 429.142 69.856C429.934 70.444 430.456 71.26 430.708 72.304H428.944C428.776 71.704 428.446 71.23 427.954 70.882C427.474 70.534 426.874 70.36 426.154 70.36C425.218 70.36 424.462 70.684 423.886 71.332C423.31 71.968 423.022 72.874 423.022 74.05C423.022 75.238 423.31 76.156 423.886 76.804C424.462 77.452 425.218 77.776 426.154 77.776C426.874 77.776 427.474 77.608 427.954 77.272C428.434 76.936 428.764 76.456 428.944 75.832H430.708C430.444 76.84 429.916 77.65 429.124 78.262C428.332 78.862 427.342 79.162 426.154 79.162C425.218 79.162 424.384 78.952 423.652 78.532C422.932 78.112 422.368 77.518 421.96 76.75C421.552 75.982 421.348 75.082 421.348 74.05ZM432.282 74.05C432.282 73.03 432.486 72.142 432.894 71.386C433.302 70.618 433.866 70.024 434.586 69.604C435.318 69.184 436.152 68.974 437.088 68.974C438.3 68.974 439.296 69.268 440.076 69.856C440.868 70.444 441.39 71.26 441.642 72.304H439.878C439.71 71.704 439.38 71.23 438.888 70.882C438.408 70.534 437.808 70.36 437.088 70.36C436.152 70.36 435.396 70.684 434.82 71.332C434.244 71.968 433.956 72.874 433.956 74.05C433.956 75.238 434.244 76.156 434.82 76.804C435.396 77.452 436.152 77.776 437.088 77.776C437.808 77.776 438.408 77.608 438.888 77.272C439.368 76.936 439.698 76.456 439.878 75.832H441.642C441.378 76.84 440.85 77.65 440.058 78.262C439.266 78.862 438.276 79.162 437.088 79.162C436.152 79.162 435.318 78.952 434.586 78.532C433.866 78.112 433.302 77.518 432.894 76.75C432.486 75.982 432.282 75.082 432.282 74.05ZM448.129 79.162C447.205 79.162 446.365 78.952 445.609 78.532C444.865 78.112 444.277 77.518 443.845 76.75C443.425 75.97 443.215 75.07 443.215 74.05C443.215 73.042 443.431 72.154 443.863 71.386C444.307 70.606 444.907 70.012 445.663 69.604C446.419 69.184 447.265 68.974 448.201 68.974C449.137 68.974 449.983 69.184 450.739 69.604C451.495 70.012 452.089 70.6 452.521 71.368C452.965 72.136 453.187 73.03 453.187 74.05C453.187 75.07 452.959 75.97 452.503 76.75C452.059 77.518 451.453 78.112 450.685 78.532C449.917 78.952 449.065 79.162 448.129 79.162ZM448.129 77.722C448.717 77.722 449.269 77.584 449.785 77.308C450.301 77.032 450.715 76.618 451.027 76.066C451.351 75.514 451.513 74.842 451.513 74.05C451.513 73.258 451.357 72.586 451.045 72.034C450.733 71.482 450.325 71.074 449.821 70.81C449.317 70.534 448.771 70.396 448.183 70.396C447.583 70.396 447.031 70.534 446.527 70.81C446.035 71.074 445.639 71.482 445.339 72.034C445.039 72.586 444.889 73.258 444.889 74.05C444.889 74.854 445.033 75.532 445.321 76.084C445.621 76.636 446.017 77.05 446.509 77.326C447.001 77.59 447.541 77.722 448.129 77.722ZM464.089 69.136V79H462.451V77.542C462.139 78.046 461.701 78.442 461.137 78.73C460.585 79.006 459.973 79.144 459.301 79.144C458.533 79.144 457.843 78.988 457.231 78.676C456.619 78.352 456.133 77.872 455.773 77.236C455.425 76.6 455.251 75.826 455.251 74.914V69.136H456.871V74.698C456.871 75.67 457.117 76.42 457.609 76.948C458.101 77.464 458.773 77.722 459.625 77.722C460.501 77.722 461.191 77.452 461.695 76.912C462.199 76.372 462.451 75.586 462.451 74.554V69.136H464.089ZM471.661 68.956C472.861 68.956 473.833 69.322 474.577 70.054C475.321 70.774 475.693 71.818 475.693 73.186V79H474.073V73.42C474.073 72.436 473.827 71.686 473.335 71.17C472.843 70.642 472.171 70.378 471.319 70.378C470.455 70.378 469.765 70.648 469.249 71.188C468.745 71.728 468.493 72.514 468.493 73.546V79H466.855V69.136H468.493V70.54C468.817 70.036 469.255 69.646 469.807 69.37C470.371 69.094 470.989 68.956 471.661 68.956ZM480.366 70.486V76.3C480.366 76.78 480.468 77.122 480.672 77.326C480.876 77.518 481.23 77.614 481.734 77.614H482.94V79H481.464C480.552 79 479.868 78.79 479.412 78.37C478.956 77.95 478.728 77.26 478.728 76.3V70.486H477.45V69.136H478.728V66.652H480.366V69.136H482.94V70.486H480.366Z" fill="#606469"/>
</svg>
